C:\Users\movea\Dropbox\PhDWork\ExperimentalData\subject9\100\P9S100W03_filtered35.mot
nRows=20
nColumns=28

name C:\Users\movea\Dropbox\PhDWork\ExperimentalData\subject9\100\P9S100W03_filtered35.mot
datacolumns 28
datarows 20
range 1.3450000000 1.3640000000
endheader
time	ground_force_1_vx	ground_force_1_vy	ground_force_1_vz	ground_force_1_px	ground_force_1_py	ground_force_1_pz	ground_moment_1_mx	ground_moment_1_my	ground_moment_1_mz	ground_force_2_vx	ground_force_2_vy	ground_force_2_vz	ground_force_2_px	ground_force_2_py	ground_force_2_pz	ground_moment_2_mx	ground_moment_2_my	ground_moment_2_mz	ground_force_3_vx	ground_force_3_vy	ground_force_3_vz	ground_force_3_px	ground_force_3_py	ground_force_3_pz	ground_moment_3_mx	ground_moment_3_my	ground_moment_3_mz
        1.3450000000	       -0.0000000000	        0.0000000000	       -0.0000000000	        0.1988394961	        0.0000558755	       -0.3004071324	       -0.0000000000	       -0.0000000000	        0.0000000000	       14.1219560474	      622.9667507253	      172.9891854463	        0.2029003516	       -0.0000795827	        0.4543649445	       48.7322703279	       12.8281033338	      -41.1983285741	       -0.0059816260	        0.0739859499	       -0.0140143098	        0.2076431971	        0.0000770316	        1.3583900146	        0.0158331453	        0.0022291450	        0.0071721298	
        1.3460000000	       -0.0000000000	        0.0000000000	       -0.0000000000	        0.1988394961	        0.0000558755	       -0.3004071324	       -0.0000000000	       -0.0000000000	        0.0000000000	       13.0061803092	      613.5288437162	      170.9474278144	        0.2029003516	       -0.0000795827	        0.4543649445	       47.6235309647	       12.7664470226	      -40.4814839703	       -0.0050780084	        0.0671571524	       -0.0154081186	        0.2076431971	        0.0000770316	        1.3583900146	        0.0149430297	        0.0024361769	        0.0067762672	
        1.3470000000	       -0.0000000000	        0.0000000000	       -0.0000000000	        0.1988394961	        0.0000558755	       -0.3004071324	       -0.0000000000	       -0.0000000000	        0.0000000000	       11.9090926900	      603.9878186111	      168.7955562277	        0.2029003516	       -0.0000795827	        0.4543649445	       46.5170260523	       12.6903153152	      -39.7645615321	       -0.0032776158	        0.0508932758	       -0.0160388941	        0.2076431971	        0.0000770316	        1.3583900146	        0.0122514978	        0.0025162482	        0.0055671943	
        1.3480000000	       -0.0000000000	        0.0000000000	       -0.0000000000	        0.1988394961	        0.0000558755	       -0.3004071324	       -0.0000000000	       -0.0000000000	        0.0000000000	       10.8354688360	      594.3506248047	      166.5373575530	        0.2029003516	       -0.0000795827	        0.4543649445	       45.4135496130	       12.5996141805	      -39.0480196706	       -0.0003221320	        0.0222292085	       -0.0154871230	        0.2076431971	        0.0000770316	        1.3583900146	        0.0071542241	        0.0024018544	        0.0032715508	
        1.3490000000	       -0.0000000000	        0.0000000000	       -0.0000000000	        0.1988394961	        0.0000558755	       -0.3004071324	       -0.0000000000	       -0.0000000000	        0.0000000000	        9.7893538206	      584.6285514906	      164.1779943018	        0.2029003516	       -0.0000795827	        0.4543649445	       44.3136299568	       12.4942597937	      -38.3322966174	        0.0040623871	        0.0000000000	       -0.0132438793	        0.2076431971	        0.0000770316	        1.3583900146	       -0.0010170676	        0.0020114893	       -0.0004131023	
        1.3500000000	       -0.0000000000	        0.0000000000	       -0.0000000000	        0.1988394961	        0.0000558755	       -0.3004071324	       -0.0000000000	       -0.0000000000	        0.0000000000	        8.7742683219	      574.8322388175	      161.7247165237	        0.2029003516	       -0.0000795827	        0.4543649445	       43.2173516220	       12.3742319010	      -37.6175294951	        0.0101476146	        0.0000000000	       -0.0087154915	        0.2076431971	        0.0000770316	        1.3583900146	       -0.0129631663	        0.0012505435	       -0.0058041204	
        1.3510000000	       -0.0000000000	        0.0000000000	       -0.0000000000	        0.1988394961	        0.0000558755	       -0.3004071324	       -0.0000000000	       -0.0000000000	        0.0000000000	        7.7931823851	      564.9703842467	      159.1870010310	        0.2029003516	       -0.0000795827	        0.4543649445	       42.1243643934	       12.2396110787	      -36.9034876542	        0.0181767883	        0.0000000000	       -0.0012382444	        0.2076431971	        0.0000770316	        1.3583900146	       -0.0293680500	        0.0000138370	       -0.0132115293	
        1.3520000000	       -0.0000000000	        0.0000000000	       -0.0000000000	        0.1988394961	        0.0000558755	       -0.3004071324	       -0.0000000000	       -0.0000000000	        0.0000000000	        6.8482015916	      555.0515734176	      156.5753726659	        0.2029003516	       -0.0000795827	        0.4543649445	       41.0342854981	       12.0906808972	      -36.1898356979	        0.0283287844	        0.0000000000	        0.0098934893	        0.2076431971	        0.0000770316	        1.3583900146	       -0.0508277603	       -0.0018096714	       -0.0229059246	
        1.3530000000	       -0.0000000000	        0.0000000000	       -0.0000000000	        0.1988394961	        0.0000558755	       -0.3004071324	       -0.0000000000	       -0.0000000000	        0.0000000000	        5.9405070225	      545.0846975838	      153.9001024257	        0.2029003516	       -0.0000795827	        0.4543649445	       39.9470355825	       11.9280197370	      -35.4763029119	        0.0406711266	        0.0000000000	        0.0253819276	        0.2076431971	        0.0000770316	        1.3583900146	       -0.0777537248	       -0.0043294047	       -0.0350748134	
        1.3540000000	        0.0000000000	        0.0000000000	        0.0000000000	        0.1988394961	        0.0000558755	       -0.3004071324	        0.0000000000	       -0.0000000000	       -0.0000000000	        5.0708022014	      535.0759861017	      151.1709078232	        0.2029003516	       -0.0000795827	        0.4543649445	       38.8627435285	       11.7523779629	      -34.7626947284	        0.0551010300	        0.0000000000	        0.0458594155	        0.2076431971	        0.0000770316	        1.3583900146	       -0.1102473552	       -0.0076422965	       -0.0497659599	
        1.3550000000	        0.0000000000	        0.0000000000	        0.0000000000	        0.1988394961	        0.0000558755	       -0.3004071324	        0.0000000000	       -0.0000000000	       -0.0000000000	        4.2395777495	      525.0265811154	      148.3971188208	        0.2029003516	       -0.0000795827	        0.4543649445	       37.7815383098	       11.5645329552	      -34.0489921527	        0.0712742592	        0.0000000000	        0.0717969462	        0.2076431971	        0.0000770316	        1.3583900146	       -0.1479439040	       -0.0118179260	       -0.0668168122	
        1.3560000000	        0.0000000000	        0.0000000000	        0.0000000000	        0.1988394961	        0.0000558755	       -0.3004071324	        0.0000000000	        0.0000000000	       -0.0000000000	        3.4467618745	      514.9342112064	      145.5872299384	        0.2029003516	       -0.0000795827	        0.4543649445	       36.7035951166	       11.3652734556	      -33.3353886884	        0.0885226035	        0.0000000000	        0.1033842726	        0.2076431971	        0.0000770316	        1.3583900146	       -0.1898254430	       -0.0168791411	       -0.0857699387	
        1.3570000000	        0.0000000000	        0.0000000000	        0.0000000000	        0.1988394961	        0.0000558755	       -0.3004071324	        0.0000000000	        0.0000000000	       -0.0000000000	        2.6915273256	      504.7960072269	      142.7476235074	        0.2029003516	       -0.0000795827	        0.4543649445	       35.6292918319	       11.1553269084	      -32.6222128371	        0.1057621982	        0.0000000000	        0.1403792285	        0.2076431971	        0.0000770316	        1.3583900146	       -0.2340056184	       -0.0227778234	       -0.1057756602	
        1.3580000000	        0.0000000000	        0.0000000000	        0.0000000000	        0.1988394961	        0.0000558755	       -0.3004071324	        0.0000000000	        0.0000000000	       -0.0000000000	        1.9728105459	      494.6093921797	      139.8815043157	        0.2029003516	       -0.0000795827	        0.4543649445	       34.5593133765	       10.9352856316	      -31.9100154404	        0.1213968259	        0.0000000000	        0.1819255995	        0.2076431971	        0.0000770316	        1.3583900146	       -0.2774926953	       -0.0293657329	       -0.1254848063	
        1.3590000000	        0.0000000000	        0.0000000000	        0.0000000000	        0.1988394961	        0.0000558755	       -0.3004071324	        0.0000000000	        0.0000000000	       -0.0000000000	        1.2898758649	      484.3723396345	      136.9888458150	        0.2029003516	       -0.0000795827	        0.4543649445	       33.4946855184	       10.7056960471	      -31.1997686350	        0.1332227522	        0.0000000000	        0.2263414698	        0.2076431971	        0.0000770316	        1.3583900146	       -0.3159424965	       -0.0363607943	       -0.1429368247	
        1.3600000000	        0.0000000000	        0.0000000000	        0.0000000000	        0.1988394961	        0.0000558755	       -0.3004071324	        0.0000000000	        0.0000000000	       -0.0000000000	        0.6424442576	      474.0846792707	      134.0669474891	        0.2029003516	       -0.0000795827	        0.4543649445	       32.4365928123	       10.4671524981	      -30.4927759716	        0.1383446078	        0.0000000000	        0.2708836156	        0.2076431971	        0.0000770316	        1.3583900146	       -0.3434192675	       -0.0433097823	       -0.1554513764	
        1.3610000000	        0.0000000000	        0.0000000000	        0.0000000000	        0.1988394961	        0.0000558755	       -0.3004071324	        0.0000000000	        0.0000000000	       -0.0000000000	        0.0306459005	      463.7503296477	      131.1113768799	        0.2029003516	       -0.0000795827	        0.4543649445	       31.3861193034	       10.2202174998	      -29.7902378982	        0.1331153191	        0.0000000000	        0.3114983605	        0.2076431971	        0.0000770316	        1.3583900146	       -0.3521903029	       -0.0495491451	       -0.1595350794	
        1.3620000000	        0.0000000000	        0.0000000000	        0.0000000000	        0.1988394961	        0.0000558755	       -0.3004071324	        0.0000000000	        0.0000000000	       -0.0000000000	       -0.5452960676	      453.3790434181	      128.1172464314	        0.2029003516	       -0.0000795827	        0.4543649445	       30.3443178433	        9.9652732497	      -29.0929665459	        0.1131170162	        0.0000000000	        0.3425754924	        0.2076431971	        0.0000770316	        1.3583900146	       -0.3325892878	       -0.0541667030	       -0.1508191823	
        1.3630000000	        0.0000000000	        0.0000000000	        0.0000000000	        0.1988394961	        0.0000558755	       -0.3004071324	        0.0000000000	        0.0000000000	       -0.0000000000	       -1.0855217369	      442.9850750343	      125.0802083048	        0.2029003516	       -0.0000795827	        0.4543649445	       29.3125355059	        9.7025300773	      -28.4016138286	        0.0732040871	        0.0000000000	        0.3567294178	        0.2076431971	        0.0000770316	        1.3583900146	       -0.2729935043	       -0.0559681746	       -0.1240485717	
        1.3640000000	        0.0000000000	        0.0000000000	        0.0000000000	        0.1988394961	        0.0000558755	       -0.3004071324	        0.0000000000	        0.0000000000	       -0.0000000000	       -1.5904594611	      432.5831035301	      121.9969651533	        0.2029003516	       -0.0000795827	        0.4543649445	       28.2924477947	        9.4322226376	      -27.7170088445	        0.0076338206	        0.0000000000	        0.3446406582	        0.2076431971	        0.0000770316	        1.3583900146	       -0.1599709210	       -0.0534539061	       -0.0731474286	
